<svg width="380" height="380" viewBox="0 0 380 380" xmlns="http://www.w3.org/2000/svg">
      <defs>
        
  <linearGradient id="avatarBg2" gradientTransform="rotate(120)">
    <stop offset="0%" stop-color="#f2e9e0" />
<stop offset="60%" stop-color="#F1E6DC" />
<stop offset="100%" stop-color="#684739" />
  </linearGradient>

        
  <linearGradient id="avatarGarment2" gradientTransform="rotate(90)">
    <stop offset="0%" stop-color="#B48C74" />
<stop offset="100%" stop-color="#876957" />
  </linearGradient>

        
  <filter id="avatarNoise2" x="0" y="0" width="1" height="1">
    <feTurbulence type="fractalNoise" baseFrequency="0.7950093841436683" numOctaves="3" seed="3988" />
    <feColorMatrix type="matrix" values="0 0 0 0 0  0 0 0 0 0  0 0 0 0 0  0 0 0 0.18 0" />
  </filter>

      </defs>
      <rect width="380" height="380" fill="url(#avatarBg2)" rx="32" />
      <g filter="url(#avatarNoise2)" opacity="0.35">
        <rect width="380" height="380" fill="#000" />
      </g>
      <circle cx="190" cy="190" r="174" fill="rgba(255,255,255,0.08)" />
      <path
        d="M 50 380
           L 50 270
           Q 190 190 330 270
           L 330 380
           Z"
        fill="url(#avatarGarment2)"
        opacity="0.95"
      />
      <ellipse cx="190" cy="150" rx="84" ry="90" fill="#6B4C3F" />
      <ellipse cx="190" cy="136" rx="94" ry="70" fill="#563d32" opacity="0.85" />
      <circle cx="190" cy="180" r="82" fill="#C99D82" />
      <rect x="160" y="220" width="60" height="80" rx="22" fill="#C99D82" />
      <ellipse cx="190" cy="244" rx="58" ry="40" fill="#B48C74" opacity="0.45" />
      <circle cx="144" cy="184" r="18" fill="#d3af99" opacity="0.55" />
      <circle cx="236" cy="184" r="18" fill="#d3af99" opacity="0.55" />
      <path d="M 145 175 Q 166 164 185 170" stroke="#604439" stroke-width="5" stroke-linecap="round" opacity="0.5" />
      <path d="M 235 175 Q 214 164 195 170" stroke="#604439" stroke-width="5" stroke-linecap="round" opacity="0.5" />
      <path d="M 158 185 Q 174 190 186 188" stroke="#50392f" stroke-width="6" stroke-linecap="round" />
      <path d="M 222 185 Q 206 190 194 188" stroke="#50392f" stroke-width="6" stroke-linecap="round" />
      <path d="M 190 170 Q 184 200 190 208" stroke="#977662" stroke-width="6" stroke-linecap="round" fill="none" />
      <path d="M 176 218 Q 190 225 204 218" stroke="#c89b7f" stroke-width="5" stroke-linecap="round" />
      
      
      
      <clipPath id="avatarLogo2">
        <rect x="298" y="298" width="58" height="58" rx="10" ry="10" />
      </clipPath>
      <rect x="292" y="292" width="70" height="70" fill="rgba(60,40,30,0.12)" rx="16" />
      <image href="../yezai.png" x="298" y="298" width="58" height="58" clip-path="url(#avatarLogo2)" preserveAspectRatio="xMidYMid slice" opacity="0.9" />
    
    </svg>
