<svg width="380" height="380" viewBox="0 0 380 380" xmlns="http://www.w3.org/2000/svg">
      <defs>
        
  <linearGradient id="avatarBg3" gradientTransform="rotate(120)">
    <stop offset="0%" stop-color="#e9dbcc" />
<stop offset="60%" stop-color="#E6D7C6" />
<stop offset="100%" stop-color="#5A3C33" />
  </linearGradient>

        
  <linearGradient id="avatarGarment3" gradientTransform="rotate(90)">
    <stop offset="0%" stop-color="#6C7B72" />
<stop offset="100%" stop-color="#515c56" />
  </linearGradient>

        
  <filter id="avatarNoise3" x="0" y="0" width="1" height="1">
    <feTurbulence type="fractalNoise" baseFrequency="0.7514506737232296" numOctaves="3" seed="4985" />
    <feColorMatrix type="matrix" values="0 0 0 0 0  0 0 0 0 0  0 0 0 0 0  0 0 0 0.18 0" />
  </filter>

      </defs>
      <rect width="380" height="380" fill="url(#avatarBg3)" rx="32" />
      <g filter="url(#avatarNoise3)" opacity="0.35">
        <rect width="380" height="380" fill="#000" />
      </g>
      <circle cx="190" cy="190" r="174" fill="rgba(255,255,255,0.08)" />
      <path
        d="M 50 380
           L 50 270
           Q 190 190 330 270
           L 330 380
           Z"
        fill="url(#avatarGarment3)"
        opacity="0.95"
      />
      <ellipse cx="190" cy="148" rx="86" ry="92" fill="#3d2e26" />
      <ellipse cx="190" cy="134" rx="96" ry="72" fill="#2f2420" opacity="0.88" />
      <circle cx="190" cy="178" r="84" fill="#c8a590" />
      <rect x="158" y="218" width="64" height="84" rx="23" fill="#c8a590" />
      <ellipse cx="190" cy="242" rx="60" ry="42" fill="#8a9186" opacity="0.48" />
      <circle cx="142" cy="182" r="19" fill="#d1b09d" opacity="0.58" />
      <circle cx="238" cy="182" r="19" fill="#d1b09d" opacity="0.58" />
      <path d="M 143 172 Q 165 160 184 167" stroke="#342822" stroke-width="5.2" stroke-linecap="round" opacity="0.54" />
      <path d="M 237 172 Q 215 160 196 167" stroke="#342822" stroke-width="5.2" stroke-linecap="round" opacity="0.54" />
      <path d="M 156 183 Q 172 189 185 187" stroke="#2b211d" stroke-width="6.4" stroke-linecap="round" />
      <path d="M 224 183 Q 208 189 195 187" stroke="#2b211d" stroke-width="6.4" stroke-linecap="round" />
      <path d="M 190 168 Q 183 198 190 207" stroke="#9d7d6a" stroke-width="6.2" stroke-linecap="round" fill="none" />
      <path d="M 175 216 Q 190 224 205 216" stroke="#c39580" stroke-width="5.2" stroke-linecap="round" />
      <path d="M 160 190 Q 190 198 220 190" stroke="#3d2e26" stroke-width="7.5" stroke-linecap="round" opacity="0.72" />
      <ellipse cx="190" cy="145" rx="78" ry="18" fill="#2f2420" opacity="0.65" />
      
      
      <clipPath id="avatarLogo3">
        <rect x="298" y="298" width="58" height="58" rx="10" ry="10" />
      </clipPath>
      <rect x="292" y="292" width="70" height="70" fill="rgba(60,40,30,0.12)" rx="16" />
      <image href="../yezai.png" x="298" y="298" width="58" height="58" clip-path="url(#avatarLogo3)" preserveAspectRatio="xMidYMid slice" opacity="0.9" />
    
    </svg>
