<svg width="720" height="460" viewBox="0 0 720 460" xmlns="http://www.w3.org/2000/svg">
      <defs>
        
  <linearGradient id="destSky5" gradientTransform="rotate(100)">
    <stop offset="0%" stop-color="#efe5d7" />
<stop offset="40%" stop-color="#EDE1D2" />
<stop offset="100%" stop-color="#e1d6c8" />
  </linearGradient>

        
  <filter id="destNoise5" x="0" y="0" width="1" height="1">
    <feTurbulence type="fractalNoise" baseFrequency="0.7577782212603779" numOctaves="3" seed="9970" />
    <feColorMatrix type="matrix" values="0 0 0 0 0  0 0 0 0 0  0 0 0 0 0  0 0 0 0.22 0" />
  </filter>

      </defs>
      <rect width="720" height="460" fill="url(#destSky5)" />
      <circle cx="120" cy="100" r="34" fill="#c1a089" opacity="0.35" />
      
      <g opacity="0.4">
        <ellipse cx="200" cy="120" rx="60" ry="20" fill="#efe5d7" />
        <ellipse cx="226" cy="112" rx="28" ry="14" fill="#f2e9dd" />
      </g>
    

      <g opacity="0.4">
        <ellipse cx="420" cy="138" rx="72" ry="20" fill="#efe5d7" />
        <ellipse cx="446" cy="130" rx="28" ry="14" fill="#f2e9dd" />
      </g>
    
      <path d="M 0 460 L 0 253.00000000000003 Q -45 217.0939402604626 0 234.49694054870628 Q 45 211.00537796963718 90 211.45683964941955 Q 135 227.6494222279021 180 229.94500332618605 Q 225 209.5337283215093 270 223.43146765293235 Q 315 203.91208283567215 360 212.0572138086613 Q 405 233.74918518021312 450 243.7641216702921 Q 495 246.6244177891513 540 255.38874551645367 Q 585 245.1968046656965 630 259.5240531349972 Q 675 231.00830807963084 720 234.90314688733505 L 720 460 Z" fill="#D3BEA9" opacity="0.95" />
      <path d="M 0 460 L 0 322 Q -45 285.68301762257374 0 296.2041039510839 Q 45 279.9356736121528 90 293.6027864227046 Q 135 297.35643863222435 180 298.39833404865044 Q 225 315.1684940225266 270 327.06933568837735 Q 315 309.5425853322773 360 321.8502486171561 Q 405 309.6295111382168 450 320.85335298651705 Q 495 308.1146263309304 540 312.9172498352357 Q 585 306.47640153522866 630 308.6112208433317 Q 675 289.0246837029104 720 303.9081853072026 L 720 460 Z" fill="#B2886B" opacity="0.95" />
      <path d="M 0 460 L 0 381.79999999999995 Q -45 371.31554049922204 0 375.1219207383773 Q 45 373.2360839903656 90 384.3720797304529 Q 135 370.5673318486985 180 382.9114995380593 Q 225 362.9595876482328 270 380.12911878402355 Q 315 364.6396101640708 360 367.0084964468693 Q 405 358.35648099303233 450 372.27609614541296 Q 495 340.7935666200729 540 354.9149418060052 Q 585 352.28566026600026 630 356.831987118302 Q 675 374.78565718342423 720 375.132176157868 L 720 460 Z" fill="#8A614B" opacity="0.96" />
      <path d="M 0 460 L 0 423.20000000000005 Q -45 413.36022189161207 0 429.2627986772704 Q 45 406.950990036497 90 420.11308417681863 Q 135 408.9489814940433 180 417.1099432340151 Q 225 406.35320352211716 270 414.87570681718285 Q 315 407.89345080082575 360 412.41978409364464 Q 405 410.8363602005076 450 416.08801200796114 Q 495 415.2871905448455 540 420.25375783219073 Q 585 420.56786400007303 630 425.0948967302235 Q 675 425.3545506608936 720 427.3257573699631 L 720 460 Z" fill="#624437" opacity="0.98" />
      <path d="M 40 340 T 40 359.94989973208106 T 150 351.96944288207914 T 260 332.9843354462076 T 370 320.44939764669806 T 480 325.8891934885922 T 590 344.3023997617563" stroke="rgba(255,255,255,0.25)" fill="none" stroke-width="2" stroke-linecap="round" opacity="0.5" />
<path d="M 40 310 T 40 326.7572200349108 T 150 300.17806962469064 T 260 282.6291567053773 T 370 290.244870884029 T 480 316.0233596664588 T 590 336.2639993496927" stroke="rgba(255,255,255,0.25)" fill="none" stroke-width="2" stroke-linecap="round" opacity="0.5" />
<path d="M 40 280 T 40 267.3718038031737 T 150 244.8089157640565 T 260 254.6005482794659 T 370 287.7443195711614 T 480 313.7679991638906 T 590 308.74553605444567" stroke="rgba(255,255,255,0.25)" fill="none" stroke-width="2" stroke-linecap="round" opacity="0.5" />
      <g filter="url(#destNoise5)" opacity="0.4">
        <rect width="720" height="460" fill="#000" />
      </g>
      
      <clipPath id="destLogo5">
        <rect x="638" y="378" width="58" height="58" rx="10" ry="10" />
      </clipPath>
      <rect x="632" y="372" width="70" height="70" fill="rgba(60,40,30,0.12)" rx="16" />
      <image href="../yezai.png" x="638" y="378" width="58" height="58" clip-path="url(#destLogo5)" preserveAspectRatio="xMidYMid slice" opacity="0.9" />
    
    </svg>
