<svg width="720" height="460" viewBox="0 0 720 460" xmlns="http://www.w3.org/2000/svg">
      <defs>
        
  <linearGradient id="destSky10" gradientTransform="rotate(100)">
    <stop offset="0%" stop-color="#f6ece1" />
<stop offset="40%" stop-color="#F5E9DD" />
<stop offset="100%" stop-color="#e9ddd2" />
  </linearGradient>

        
  <filter id="destNoise10" x="0" y="0" width="1" height="1">
    <feTurbulence type="fractalNoise" baseFrequency="0.7756803142336139" numOctaves="3" seed="14955" />
    <feColorMatrix type="matrix" values="0 0 0 0 0  0 0 0 0 0  0 0 0 0 0  0 0 0 0.22 0" />
  </filter>

      </defs>
      <rect width="720" height="460" fill="url(#destSky10)" />
      <circle cx="120" cy="110" r="34" fill="#b99782" opacity="0.35" />
      
      <g opacity="0.4">
        <ellipse cx="170" cy="120" rx="60" ry="20" fill="#f6ece1" />
        <ellipse cx="196" cy="112" rx="28" ry="14" fill="#f8efe6" />
      </g>
    

      <g opacity="0.4">
        <ellipse cx="390" cy="138" rx="72" ry="20" fill="#f6ece1" />
        <ellipse cx="416" cy="130" rx="28" ry="14" fill="#f8efe6" />
      </g>
    
      <path d="M 0 460 L 0 253.00000000000003 Q -45 233.74918518021312 0 243.7641216702921 Q 45 246.6244177891513 90 255.38874551645367 Q 135 245.1968046656965 180 259.5240531349972 Q 225 231.00830807963084 270 234.90314688733505 Q 315 227.50844347032873 360 236.19342587118192 Q 405 201.20547999322412 450 211.72656632173425 Q 495 193.8973454657756 540 207.56445827632737 Q 585 214.19543906141462 630 215.2373344778407 Q 675 249.21009543555306 720 261.1109371014038 L 720 460 Z" fill="#DBC5B0" opacity="0.95" />
      <path d="M 0 460 L 0 322 Q -45 309.6295111382168 0 320.85335298651705 Q 45 308.1146263309304 90 312.9172498352357 Q 135 306.47640153522866 180 308.6112208433317 Q 225 289.0246837029104 270 303.9081853072026 Q 315 285.7064054091176 360 288.8258961019389 Q 405 309.84602068381645 450 313.6524009229717 Q 495 314.0791039229789 540 325.2150996630662 Q 585 311.0452067332133 630 323.3893744225741 Q 675 302.7418673442387 720 319.91139848002945 L 720 460 Z" fill="#A87D63" opacity="0.95" />
      <path d="M 0 460 L 0 381.79999999999995 Q -45 358.35648099303233 0 372.27609614541296 Q 45 340.7935666200729 90 354.9149418060052 Q 135 352.28566026600026 180 356.831987118302 Q 225 374.78565718342423 270 375.132176157868 Q 315 388.528847288449 360 389.16326342978164 Q 405 378.0230205688823 450 393.9255973545406 Q 495 362.46407421331554 540 375.6261683536372 Q 585 361.45892472805826 630 369.61988646803 Q 675 356.62891033929986 720 365.15141363436555 L 720 460 Z" fill="#7C5A47" opacity="0.96" />
      <path d="M 0 460 L 0 423.20000000000005 Q -45 410.8363602005076 0 416.08801200796114 Q 45 415.2871905448455 90 420.25375783219073 Q 135 420.56786400007303 180 425.0948967302235 Q 225 425.3545506608936 270 427.3257573699631 Q 315 418.66332340522183 360 426.7321188536456 Q 405 410.14232423947857 450 418.96194859534904 Q 495 402.33777319859547 540 413.99371780707844 Q 585 397.732945399032 630 410.8096006157108 Q 675 405.4098530765366 720 412.2511381213551 L 720 460 Z" fill="#574034" opacity="0.98" />
      <path d="M 40 340 T 40 342.8224001611973 T 150 324.8639500938414 T 260 320.82151450673723 T 370 334.41169003602147 T 480 353.13973197437576 T 590 359.78716493246765" stroke="rgba(255,255,255,0.25)" fill="none" stroke-width="2" stroke-linecap="round" opacity="0.5" />
<path d="M 40 310 T 40 288.809530131378 T 150 283.1501203094321 T 260 302.1763660504301 T 370 328.39562476412607 T 480 337.7020309054547 T 590 321.5393175867692" stroke="rgba(255,255,255,0.25)" fill="none" stroke-width="2" stroke-linecap="round" opacity="0.5" />
<path d="M 40 280 T 40 245.47872611212702 T 150 269.94104206483865 T 260 303.65151755387643 T 370 315.61689687844176 T 480 294.83626546870323 T 590 260.4152400079827" stroke="rgba(255,255,255,0.25)" fill="none" stroke-width="2" stroke-linecap="round" opacity="0.5" />
      <g filter="url(#destNoise10)" opacity="0.4">
        <rect width="720" height="460" fill="#000" />
      </g>
      
      <clipPath id="destLogo10">
        <rect x="638" y="378" width="58" height="58" rx="10" ry="10" />
      </clipPath>
      <rect x="632" y="372" width="70" height="70" fill="rgba(60,40,30,0.12)" rx="16" />
      <image href="../yezai.png" x="638" y="378" width="58" height="58" clip-path="url(#destLogo10)" preserveAspectRatio="xMidYMid slice" opacity="0.9" />
    
    </svg>
