<svg width="720" height="460" viewBox="0 0 720 460" xmlns="http://www.w3.org/2000/svg">
      <defs>
        
  <linearGradient id="destSky9" gradientTransform="rotate(100)">
    <stop offset="0%" stop-color="#f4e9dd" />
<stop offset="40%" stop-color="#F2E6D8" />
<stop offset="100%" stop-color="#e6dbcd" />
  </linearGradient>

        
  <filter id="destNoise9" x="0" y="0" width="1" height="1">
    <feTurbulence type="fractalNoise" baseFrequency="0.6147113897408417" numOctaves="3" seed="13958" />
    <feColorMatrix type="matrix" values="0 0 0 0 0  0 0 0 0 0  0 0 0 0 0  0 0 0 0.22 0" />
  </filter>

      </defs>
      <rect width="720" height="460" fill="url(#destSky9)" />
      <circle cx="280" cy="100" r="34" fill="#c0a28f" opacity="0.35" />
      
      <g opacity="0.4">
        <ellipse cx="140" cy="120" rx="60" ry="20" fill="#f4e9dd" />
        <ellipse cx="166" cy="112" rx="28" ry="14" fill="#f5ece2" />
      </g>
    

      <g opacity="0.4">
        <ellipse cx="360" cy="138" rx="72" ry="20" fill="#f4e9dd" />
        <ellipse cx="386" cy="130" rx="28" ry="14" fill="#f5ece2" />
      </g>
    
      <path d="M 0 460 L 0 253.00000000000003 Q -45 203.91208283567215 0 212.0572138086613 Q 45 233.74918518021312 90 243.7641216702921 Q 135 246.6244177891513 180 255.38874551645367 Q 225 245.1968046656965 270 259.5240531349972 Q 315 231.00830807963084 360 234.90314688733505 Q 405 227.50844347032873 450 236.19342587118192 Q 495 201.20547999322412 540 211.72656632173425 Q 585 193.8973454657756 630 207.56445827632737 Q 675 214.19543906141462 720 215.2373344778407 L 720 460 Z" fill="#D9C3AE" opacity="0.95" />
      <path d="M 0 460 L 0 322 Q -45 309.5425853322773 0 321.8502486171561 Q 45 309.6295111382168 90 320.85335298651705 Q 135 308.1146263309304 180 312.9172498352357 Q 225 306.47640153522866 270 308.6112208433317 Q 315 289.0246837029104 360 303.9081853072026 Q 405 285.7064054091176 450 288.8258961019389 Q 495 309.84602068381645 540 313.6524009229717 Q 585 314.0791039229789 630 325.2150996630662 Q 675 311.0452067332133 720 323.3893744225741 L 720 460 Z" fill="#B08B73" opacity="0.95" />
      <path d="M 0 460 L 0 381.79999999999995 Q -45 364.6396101640708 0 367.0084964468693 Q 45 358.35648099303233 90 372.27609614541296 Q 135 340.7935666200729 180 354.9149418060052 Q 225 352.28566026600026 270 356.831987118302 Q 315 374.78565718342423 360 375.132176157868 Q 405 388.528847288449 450 389.16326342978164 Q 495 378.0230205688823 540 393.9255973545406 Q 585 362.46407421331554 630 375.6261683536372 Q 675 361.45892472805826 720 369.61988646803 L 720 460 Z" fill="#87624B" opacity="0.96" />
      <path d="M 0 460 L 0 423.20000000000005 Q -45 407.89345080082575 0 412.41978409364464 Q 45 410.8363602005076 90 416.08801200796114 Q 135 415.2871905448455 180 420.25375783219073 Q 225 420.56786400007303 270 425.0948967302235 Q 315 425.3545506608936 360 427.3257573699631 Q 405 418.66332340522183 450 426.7321188536456 Q 495 410.14232423947857 540 418.96194859534904 Q 585 402.33777319859547 630 413.99371780707844 Q 675 397.732945399032 720 410.8096006157108 L 720 460 Z" fill="#6D4B3B" opacity="0.98" />
      <path d="M 40 340 T 40 348.5475976046766 T 150 329.40327718183016 T 260 320.001534848718 T 370 328.9862891480472 T 480 348.09699841233197 T 590 359.76336467754" stroke="rgba(255,255,255,0.25)" fill="none" stroke-width="2" stroke-linecap="round" opacity="0.5" />
<path d="M 40 310 T 40 295.1645880545622 T 150 282.0021487882052 T 260 294.58080480726613 T 370 321.3357977772647 T 480 337.668710548556 T 590 328.5631384423011" stroke="rgba(255,255,255,0.25)" fill="none" stroke-width="2" stroke-linecap="round" opacity="0.5" />
<path d="M 40 280 T 40 244.00276272769236 T 150 260.175320466485 T 260 294.5745971421975 T 370 315.574056419572 T 480 303.8668922829586 T 590 270.21661744920607" stroke="rgba(255,255,255,0.25)" fill="none" stroke-width="2" stroke-linecap="round" opacity="0.5" />
      <g filter="url(#destNoise9)" opacity="0.4">
        <rect width="720" height="460" fill="#000" />
      </g>
      
      <clipPath id="destLogo9">
        <rect x="638" y="378" width="58" height="58" rx="10" ry="10" />
      </clipPath>
      <rect x="632" y="372" width="70" height="70" fill="rgba(60,40,30,0.12)" rx="16" />
      <image href="../yezai.png" x="638" y="378" width="58" height="58" clip-path="url(#destLogo9)" preserveAspectRatio="xMidYMid slice" opacity="0.9" />
    
    </svg>
