<svg width="720" height="460" viewBox="0 0 720 460" xmlns="http://www.w3.org/2000/svg">
      <defs>
        
  <linearGradient id="destSky1" gradientTransform="rotate(100)">
    <stop offset="0%" stop-color="#f6ece1" />
<stop offset="40%" stop-color="#F5E9DD" />
<stop offset="100%" stop-color="#e9ddd2" />
  </linearGradient>

        
  <filter id="destNoise1" x="0" y="0" width="1" height="1">
    <feTurbulence type="fractalNoise" baseFrequency="0.7690036021483138" numOctaves="3" seed="5982" />
    <feColorMatrix type="matrix" values="0 0 0 0 0  0 0 0 0 0  0 0 0 0 0  0 0 0 0.22 0" />
  </filter>

      </defs>
      <rect width="720" height="460" fill="url(#destSky1)" />
      <circle cx="160" cy="100" r="34" fill="#b99782" opacity="0.35" />
      
      <g opacity="0.4">
        <ellipse cx="170" cy="120" rx="60" ry="20" fill="#f6ece1" />
        <ellipse cx="196" cy="112" rx="28" ry="14" fill="#f8efe6" />
      </g>
    

      <g opacity="0.4">
        <ellipse cx="390" cy="138" rx="72" ry="20" fill="#f6ece1" />
        <ellipse cx="416" cy="130" rx="28" ry="14" fill="#f8efe6" />
      </g>
    
      <path d="M 0 460 L 0 253.00000000000003 Q -45 229.4537838482655 0 234.32854376997497 Q 45 235.4578532489983 90 247.52448204436465 Q 135 248.33123256311063 180 249.65525763978638 Q 225 259.70549430959784 270 275.5167225906231 Q 315 217.0939402604626 360 234.49694054870628 Q 405 211.00537796963718 450 211.45683964941955 Q 495 227.6494222279021 540 229.94500332618605 Q 585 209.5337283215093 630 223.43146765293235 Q 675 203.91208283567215 720 212.0572138086613 L 720 460 Z" fill="#DBC5B0" opacity="0.95" />
      <path d="M 0 460 L 0 322 Q -45 314.7286382204812 0 323.49296594778355 Q 45 311.7502847400725 90 326.0775332093732 Q 135 306.7946279968802 180 310.6894668045844 Q 225 302.8109087686355 270 311.4958911694887 Q 315 285.68301762257374 360 296.2041039510839 Q 405 279.9356736121528 450 293.6027864227046 Q 495 297.35643863222435 540 298.39833404865044 Q 585 315.1684940225266 630 327.06933568837735 Q 675 309.5425853322773 720 321.8502486171561 L 720 460 Z" fill="#A87D63" opacity="0.95" />
      <path d="M 0 460 L 0 381.79999999999995 Q -45 369.7311763638832 0 374.5337998681885 Q 45 368.95415736656224 90 371.0889766746653 Q 135 352.44304664146983 180 367.326548245762 Q 225 352.14122618872983 270 355.2607168815511 Q 315 371.31554049922204 360 375.1219207383773 Q 405 373.2360839903656 450 384.3720797304529 Q 495 370.5673318486985 540 382.9114995380593 Q 585 362.9595876482328 630 380.12911878402355 Q 675 364.6396101640708 720 367.0084964468693 L 720 460 Z" fill="#7C5A47" opacity="0.96" />
      <path d="M 0 460 L 0 423.20000000000005 Q -45 395.63609571707036 0 409.7574709030026 Q 45 406.16966670684934 90 410.71599355915106 Q 135 419.5195691044903 180 419.86608807893407 Q 225 426.24721557355826 270 426.8816317148909 Q 315 413.36022189161207 360 429.2627986772704 Q 405 406.950990036497 450 420.11308417681863 Q 495 408.9489814940433 540 417.1099432340151 Q 585 406.35320352211716 630 414.87570681718285 Q 675 407.89345080082575 720 412.41978409364464 L 720 460 Z" fill="#574034" opacity="0.98" />
      <path d="M 40 340 T 40 345.9104041332268 T 150 359.27116370834386 T 260 354.9141042435344 T 370 336.84508611713505 T 480 321.6766812650109 T 590 323.354651155522" stroke="rgba(255,255,255,0.25)" fill="none" stroke-width="2" stroke-linecap="round" opacity="0.5" />
<path d="M 40 310 T 40 336.9796291916814 T 150 330.87974594094817 T 260 305.58312056398904 T 370 284.34735377101526 T 480 286.6965116177308 T 590 310.4707892135618" stroke="rgba(255,255,255,0.25)" fill="none" stroke-width="2" stroke-linecap="round" opacity="0.5" />
<path d="M 40 280 T 40 306.8453876383619 T 150 274.3211550108431 T 260 247.01802627701963 T 370 250.03837207993956 T 480 280.6053004174366 T 590 310.6157183426283" stroke="rgba(255,255,255,0.25)" fill="none" stroke-width="2" stroke-linecap="round" opacity="0.5" />
      <g filter="url(#destNoise1)" opacity="0.4">
        <rect width="720" height="460" fill="#000" />
      </g>
      
      <clipPath id="destLogo1">
        <rect x="638" y="378" width="58" height="58" rx="10" ry="10" />
      </clipPath>
      <rect x="632" y="372" width="70" height="70" fill="rgba(60,40,30,0.12)" rx="16" />
      <image href="../yezai.png" x="638" y="378" width="58" height="58" clip-path="url(#destLogo1)" preserveAspectRatio="xMidYMid slice" opacity="0.9" />
    
    </svg>
