<svg width="720" height="460" viewBox="0 0 720 460" xmlns="http://www.w3.org/2000/svg">
      <defs>
        
  <linearGradient id="destSky3" gradientTransform="rotate(100)">
    <stop offset="0%" stop-color="#f4e9dd" />
<stop offset="40%" stop-color="#F2E6D8" />
<stop offset="100%" stop-color="#e6dbcd" />
  </linearGradient>

        
  <filter id="destNoise3" x="0" y="0" width="1" height="1">
    <feTurbulence type="fractalNoise" baseFrequency="0.716493246763639" numOctaves="3" seed="7976" />
    <feColorMatrix type="matrix" values="0 0 0 0 0  0 0 0 0 0  0 0 0 0 0  0 0 0 0.22 0" />
  </filter>

      </defs>
      <rect width="720" height="460" fill="url(#destSky3)" />
      <circle cx="240" cy="120" r="34" fill="#c0a28f" opacity="0.35" />
      
      <g opacity="0.4">
        <ellipse cx="140" cy="120" rx="60" ry="20" fill="#f4e9dd" />
        <ellipse cx="166" cy="112" rx="28" ry="14" fill="#f5ece2" />
      </g>
    

      <g opacity="0.4">
        <ellipse cx="360" cy="138" rx="72" ry="20" fill="#f4e9dd" />
        <ellipse cx="386" cy="130" rx="28" ry="14" fill="#f5ece2" />
      </g>
    
      <path d="M 0 460 L 0 253.00000000000003 Q -45 248.33123256311063 0 249.65525763978638 Q 45 259.70549430959784 90 275.5167225906231 Q 135 217.0939402604626 180 234.49694054870628 Q 225 211.00537796963718 270 211.45683964941955 Q 315 227.6494222279021 360 229.94500332618605 Q 405 209.5337283215093 450 223.43146765293235 Q 495 203.91208283567215 540 212.0572138086613 Q 585 233.74918518021312 630 243.7641216702921 Q 675 246.6244177891513 720 255.38874551645367 L 720 460 Z" fill="#D9C3AE" opacity="0.95" />
      <path d="M 0 460 L 0 322 Q -45 306.7946279968802 0 310.6894668045844 Q 45 302.8109087686355 90 311.4958911694887 Q 135 285.68301762257374 180 296.2041039510839 Q 225 279.9356736121528 270 293.6027864227046 Q 315 297.35643863222435 360 298.39833404865044 Q 405 315.1684940225266 450 327.06933568837735 Q 495 309.5425853322773 540 321.8502486171561 Q 585 309.6295111382168 630 320.85335298651705 Q 675 308.1146263309304 720 312.9172498352357 L 720 460 Z" fill="#B08B73" opacity="0.95" />
      <path d="M 0 460 L 0 381.79999999999995 Q -45 352.44304664146983 0 367.326548245762 Q 45 352.14122618872983 90 355.2607168815511 Q 135 371.31554049922204 180 375.1219207383773 Q 225 373.2360839903656 270 384.3720797304529 Q 315 370.5673318486985 360 382.9114995380593 Q 405 362.9595876482328 450 380.12911878402355 Q 495 364.6396101640708 540 367.0084964468693 Q 585 358.35648099303233 630 372.27609614541296 Q 675 340.7935666200729 720 354.9149418060052 L 720 460 Z" fill="#87624B" opacity="0.96" />
      <path d="M 0 460 L 0 423.20000000000005 Q -45 419.5195691044903 0 419.86608807893407 Q 45 426.24721557355826 90 426.8816317148909 Q 135 413.36022189161207 180 429.2627986772704 Q 225 406.950990036497 270 420.11308417681863 Q 315 408.9489814940433 360 417.1099432340151 Q 405 406.35320352211716 450 414.87570681718285 Q 495 407.89345080082575 540 412.41978409364464 Q 585 410.8363602005076 630 416.08801200796114 Q 675 415.2871905448455 720 420.25375783219073 L 720 460 Z" fill="#6D4B3B" opacity="0.98" />
      <path d="M 40 340 T 40 355.66653819254964 T 150 358.92600175374827 T 260 344.78498658427964 T 370 326.2446768163205 T 480 320.3509477475134 T 590 332.52246670339525" stroke="rgba(255,255,255,0.25)" fill="none" stroke-width="2" stroke-linecap="round" opacity="0.5" />
<path d="M 40 310 T 40 336.4964024552476 T 150 316.6989812179915 T 260 290.74254754284874 T 370 282.4913268465187 T 480 299.5314533847534 T 590 326.1963134028696" stroke="rgba(255,255,255,0.25)" fill="none" stroke-width="2" stroke-linecap="round" opacity="0.5" />
<path d="M 40 280 T 40 288.61297585170337 T 150 255.24041826937696 T 260 244.63170594552403 T 370 266.5404400661115 T 480 300.8238315179752 T 590 315.9618883062318" stroke="rgba(255,255,255,0.25)" fill="none" stroke-width="2" stroke-linecap="round" opacity="0.5" />
      <g filter="url(#destNoise3)" opacity="0.4">
        <rect width="720" height="460" fill="#000" />
      </g>
      
      <clipPath id="destLogo3">
        <rect x="638" y="378" width="58" height="58" rx="10" ry="10" />
      </clipPath>
      <rect x="632" y="372" width="70" height="70" fill="rgba(60,40,30,0.12)" rx="16" />
      <image href="../yezai.png" x="638" y="378" width="58" height="58" clip-path="url(#destLogo3)" preserveAspectRatio="xMidYMid slice" opacity="0.9" />
    
    </svg>
