<svg width="720" height="460" viewBox="0 0 720 460" xmlns="http://www.w3.org/2000/svg">
      <defs>
        
  <linearGradient id="destSky7" gradientTransform="rotate(100)">
    <stop offset="0%" stop-color="#f6ece1" />
<stop offset="40%" stop-color="#F5E9DD" />
<stop offset="100%" stop-color="#e9ddd2" />
  </linearGradient>

        
  <filter id="destNoise7" x="0" y="0" width="1" height="1">
    <feTurbulence type="fractalNoise" baseFrequency="0.6541639991301054" numOctaves="3" seed="11964" />
    <feColorMatrix type="matrix" values="0 0 0 0 0  0 0 0 0 0  0 0 0 0 0  0 0 0 0.22 0" />
  </filter>

      </defs>
      <rect width="720" height="460" fill="url(#destSky7)" />
      <circle cx="200" cy="120" r="34" fill="#b99782" opacity="0.35" />
      
      <g opacity="0.4">
        <ellipse cx="170" cy="120" rx="60" ry="20" fill="#f6ece1" />
        <ellipse cx="196" cy="112" rx="28" ry="14" fill="#f8efe6" />
      </g>
    

      <g opacity="0.4">
        <ellipse cx="390" cy="138" rx="72" ry="20" fill="#f6ece1" />
        <ellipse cx="416" cy="130" rx="28" ry="14" fill="#f8efe6" />
      </g>
    
      <path d="M 0 460 L 0 253.00000000000003 Q -45 227.6494222279021 0 229.94500332618605 Q 45 209.5337283215093 90 223.43146765293235 Q 135 203.91208283567215 180 212.0572138086613 Q 225 233.74918518021312 270 243.7641216702921 Q 315 246.6244177891513 360 255.38874551645367 Q 405 245.1968046656965 450 259.5240531349972 Q 495 231.00830807963084 540 234.90314688733505 Q 585 227.50844347032873 630 236.19342587118192 Q 675 201.20547999322412 720 211.72656632173425 L 720 460 Z" fill="#DBC5B0" opacity="0.95" />
      <path d="M 0 460 L 0 322 Q -45 297.35643863222435 0 298.39833404865044 Q 45 315.1684940225266 90 327.06933568837735 Q 135 309.5425853322773 180 321.8502486171561 Q 225 309.6295111382168 270 320.85335298651705 Q 315 308.1146263309304 360 312.9172498352357 Q 405 306.47640153522866 450 308.6112208433317 Q 495 289.0246837029104 540 303.9081853072026 Q 585 285.7064054091176 630 288.8258961019389 Q 675 309.84602068381645 720 313.6524009229717 L 720 460 Z" fill="#A87D63" opacity="0.95" />
      <path d="M 0 460 L 0 381.79999999999995 Q -45 370.5673318486985 0 382.9114995380593 Q 45 362.9595876482328 90 380.12911878402355 Q 135 364.6396101640708 180 367.0084964468693 Q 225 358.35648099303233 270 372.27609614541296 Q 315 340.7935666200729 360 354.9149418060052 Q 405 352.28566026600026 450 356.831987118302 Q 495 374.78565718342423 540 375.132176157868 Q 585 388.528847288449 630 389.16326342978164 Q 675 378.0230205688823 720 393.9255973545406 L 720 460 Z" fill="#7C5A47" opacity="0.96" />
      <path d="M 0 460 L 0 423.20000000000005 Q -45 408.9489814940433 0 417.1099432340151 Q 45 406.35320352211716 90 414.87570681718285 Q 135 407.89345080082575 180 412.41978409364464 Q 225 410.8363602005076 270 416.08801200796114 Q 315 415.2871905448455 360 420.25375783219073 Q 405 420.56786400007303 450 425.0948967302235 Q 495 425.3545506608936 540 427.3257573699631 Q 585 418.66332340522183 630 426.7321188536456 Q 675 410.14232423947857 720 418.96194859534904 L 720 460 Z" fill="#574034" opacity="0.98" />
      <path d="M 40 340 T 40 357.2641873329775 T 150 340.8316132486658 T 260 323.6344577787118 T 370 321.48370635344537 T 480 336.35674991455807 T 590 354.5793808025175" stroke="rgba(255,255,255,0.25)" fill="none" stroke-width="2" stroke-linecap="round" opacity="0.5" />
<path d="M 40 310 T 40 311.1642585481321 T 150 287.0882408901965 T 260 284.0771888948235 T 370 304.8994498803813 T 480 330.4111331235245 T 590 337.15691470366244" stroke="rgba(255,255,255,0.25)" fill="none" stroke-width="2" stroke-linecap="round" opacity="0.5" />
<path d="M 40 280 T 40 250.54202400168123 T 150 246.67067143620164 T 260 273.44214984620453 T 370 306.2428854445315 T 480 314.9160331904231 T 590 291.4875410445767" stroke="rgba(255,255,255,0.25)" fill="none" stroke-width="2" stroke-linecap="round" opacity="0.5" />
      <g filter="url(#destNoise7)" opacity="0.4">
        <rect width="720" height="460" fill="#000" />
      </g>
      
      <clipPath id="destLogo7">
        <rect x="638" y="378" width="58" height="58" rx="10" ry="10" />
      </clipPath>
      <rect x="632" y="372" width="70" height="70" fill="rgba(60,40,30,0.12)" rx="16" />
      <image href="../yezai.png" x="638" y="378" width="58" height="58" clip-path="url(#destLogo7)" preserveAspectRatio="xMidYMid slice" opacity="0.9" />
    
    </svg>
