<svg width="720" height="460" viewBox="0 0 720 460" xmlns="http://www.w3.org/2000/svg">
      <defs>
        
  <linearGradient id="destSky2" gradientTransform="rotate(100)">
    <stop offset="0%" stop-color="#efe5d7" />
<stop offset="40%" stop-color="#EDE1D2" />
<stop offset="100%" stop-color="#e1d6c8" />
  </linearGradient>

        
  <filter id="destNoise2" x="0" y="0" width="1" height="1">
    <feTurbulence type="fractalNoise" baseFrequency="0.7731974375781647" numOctaves="3" seed="6979" />
    <feColorMatrix type="matrix" values="0 0 0 0 0  0 0 0 0 0  0 0 0 0 0  0 0 0 0.22 0" />
  </filter>

      </defs>
      <rect width="720" height="460" fill="url(#destSky2)" />
      <circle cx="200" cy="110" r="34" fill="#c1a089" opacity="0.35" />
      
      <g opacity="0.4">
        <ellipse cx="200" cy="120" rx="60" ry="20" fill="#efe5d7" />
        <ellipse cx="226" cy="112" rx="28" ry="14" fill="#f2e9dd" />
      </g>
    

      <g opacity="0.4">
        <ellipse cx="420" cy="138" rx="72" ry="20" fill="#efe5d7" />
        <ellipse cx="446" cy="130" rx="28" ry="14" fill="#f2e9dd" />
      </g>
    
      <path d="M 0 460 L 0 253.00000000000003 Q -45 235.4578532489983 0 247.52448204436465 Q 45 248.33123256311063 90 249.65525763978638 Q 135 259.70549430959784 180 275.5167225906231 Q 225 217.0939402604626 270 234.49694054870628 Q 315 211.00537796963718 360 211.45683964941955 Q 405 227.6494222279021 450 229.94500332618605 Q 495 209.5337283215093 540 223.43146765293235 Q 585 203.91208283567215 630 212.0572138086613 Q 675 233.74918518021312 720 243.7641216702921 L 720 460 Z" fill="#D3BEA9" opacity="0.95" />
      <path d="M 0 460 L 0 322 Q -45 311.7502847400725 0 326.0775332093732 Q 45 306.7946279968802 90 310.6894668045844 Q 135 302.8109087686355 180 311.4958911694887 Q 225 285.68301762257374 270 296.2041039510839 Q 315 279.9356736121528 360 293.6027864227046 Q 405 297.35643863222435 450 298.39833404865044 Q 495 315.1684940225266 540 327.06933568837735 Q 585 309.5425853322773 630 321.8502486171561 Q 675 309.6295111382168 720 320.85335298651705 L 720 460 Z" fill="#B2886B" opacity="0.95" />
      <path d="M 0 460 L 0 381.79999999999995 Q -45 368.95415736656224 0 371.0889766746653 Q 45 352.44304664146983 90 367.326548245762 Q 135 352.14122618872983 180 355.2607168815511 Q 225 371.31554049922204 270 375.1219207383773 Q 315 373.2360839903656 360 384.3720797304529 Q 405 370.5673318486985 450 382.9114995380593 Q 495 362.9595876482328 540 380.12911878402355 Q 585 364.6396101640708 630 367.0084964468693 Q 675 358.35648099303233 720 372.27609614541296 L 720 460 Z" fill="#8A614B" opacity="0.96" />
      <path d="M 0 460 L 0 423.20000000000005 Q -45 406.16966670684934 0 410.71599355915106 Q 45 419.5195691044903 90 419.86608807893407 Q 135 426.24721557355826 180 426.8816317148909 Q 225 413.36022189161207 270 429.2627986772704 Q 315 406.950990036497 360 420.11308417681863 Q 405 408.9489814940433 450 417.1099432340151 Q 495 406.35320352211716 540 414.87570681718285 Q 585 407.89345080082575 630 412.41978409364464 Q 675 410.8363602005076 720 416.08801200796114 L 720 460 Z" fill="#624437" opacity="0.98" />
      <path d="M 40 340 T 40 351.2928494679007 T 150 359.9914720608301 T 260 350.31002743642927 T 370 331.14959113410293 T 480 320.1261799273307 T 590 327.3746672425536" stroke="rgba(255,255,255,0.25)" fill="none" stroke-width="2" stroke-linecap="round" opacity="0.5" />
<path d="M 40 310 T 40 337.98806088516216 T 150 324.434038411001 T 260 297.6094275877441 T 370 282.176651898263 T 480 292.324534139575 T 590 318.7231581783746" stroke="rgba(255,255,255,0.25)" fill="none" stroke-width="2" stroke-linecap="round" opacity="0.5" />
<path d="M 40 280 T 40 298.5580493855727 T 150 264.06926404138534 T 260 244.22712386919528 T 370 257.27440103659643 T 480 291.2154890864816 T 590 314.8451081931335" stroke="rgba(255,255,255,0.25)" fill="none" stroke-width="2" stroke-linecap="round" opacity="0.5" />
      <g filter="url(#destNoise2)" opacity="0.4">
        <rect width="720" height="460" fill="#000" />
      </g>
      
      <clipPath id="destLogo2">
        <rect x="638" y="378" width="58" height="58" rx="10" ry="10" />
      </clipPath>
      <rect x="632" y="372" width="70" height="70" fill="rgba(60,40,30,0.12)" rx="16" />
      <image href="../yezai.png" x="638" y="378" width="58" height="58" clip-path="url(#destLogo2)" preserveAspectRatio="xMidYMid slice" opacity="0.9" />
    
    </svg>
