<svg width="720" height="460" viewBox="0 0 720 460" xmlns="http://www.w3.org/2000/svg">
      <defs>
        
  <linearGradient id="destSky4" gradientTransform="rotate(100)">
    <stop offset="0%" stop-color="#f6ece1" />
<stop offset="40%" stop-color="#F5E9DD" />
<stop offset="100%" stop-color="#e9ddd2" />
  </linearGradient>

        
  <filter id="destNoise4" x="0" y="0" width="1" height="1">
    <feTurbulence type="fractalNoise" baseFrequency="0.6369704835131414" numOctaves="3" seed="8973" />
    <feColorMatrix type="matrix" values="0 0 0 0 0  0 0 0 0 0  0 0 0 0 0  0 0 0 0.22 0" />
  </filter>

      </defs>
      <rect width="720" height="460" fill="url(#destSky4)" />
      <circle cx="280" cy="90" r="34" fill="#b99782" opacity="0.35" />
      
      <g opacity="0.4">
        <ellipse cx="170" cy="120" rx="60" ry="20" fill="#f6ece1" />
        <ellipse cx="196" cy="112" rx="28" ry="14" fill="#f8efe6" />
      </g>
    

      <g opacity="0.4">
        <ellipse cx="390" cy="138" rx="72" ry="20" fill="#f6ece1" />
        <ellipse cx="416" cy="130" rx="28" ry="14" fill="#f8efe6" />
      </g>
    
      <path d="M 0 460 L 0 253.00000000000003 Q -45 259.70549430959784 0 275.5167225906231 Q 45 217.0939402604626 90 234.49694054870628 Q 135 211.00537796963718 180 211.45683964941955 Q 225 227.6494222279021 270 229.94500332618605 Q 315 209.5337283215093 360 223.43146765293235 Q 405 203.91208283567215 450 212.0572138086613 Q 495 233.74918518021312 540 243.7641216702921 Q 585 246.6244177891513 630 255.38874551645367 Q 675 245.1968046656965 720 259.5240531349972 L 720 460 Z" fill="#DBC5B0" opacity="0.95" />
      <path d="M 0 460 L 0 322 Q -45 302.8109087686355 0 311.4958911694887 Q 45 285.68301762257374 90 296.2041039510839 Q 135 279.9356736121528 180 293.6027864227046 Q 225 297.35643863222435 270 298.39833404865044 Q 315 315.1684940225266 360 327.06933568837735 Q 405 309.5425853322773 450 321.8502486171561 Q 495 309.6295111382168 540 320.85335298651705 Q 585 308.1146263309304 630 312.9172498352357 Q 675 306.47640153522866 720 308.6112208433317 L 720 460 Z" fill="#A87D63" opacity="0.95" />
      <path d="M 0 460 L 0 381.79999999999995 Q -45 352.14122618872983 0 355.2607168815511 Q 45 371.31554049922204 90 375.1219207383773 Q 135 373.2360839903656 180 384.3720797304529 Q 225 370.5673318486985 270 382.9114995380593 Q 315 362.9595876482328 360 380.12911878402355 Q 405 364.6396101640708 450 367.0084964468693 Q 495 358.35648099303233 540 372.27609614541296 Q 585 340.7935666200729 630 354.9149418060052 Q 675 352.28566026600026 720 356.831987118302 L 720 460 Z" fill="#7C5A47" opacity="0.96" />
      <path d="M 0 460 L 0 423.20000000000005 Q -45 426.24721557355826 0 426.8816317148909 Q 45 413.36022189161207 90 429.2627986772704 Q 135 406.950990036497 180 420.11308417681863 Q 225 408.9489814940433 270 417.1099432340151 Q 315 406.35320352211716 360 414.87570681718285 Q 405 407.89345080082575 450 412.41978409364464 Q 495 410.8363602005076 540 416.08801200796114 Q 585 415.2871905448455 630 420.25375783219073 Q 675 420.56786400007303 720 425.0948967302235 L 720 460 Z" fill="#574034" opacity="0.98" />
      <path d="M 40 340 T 40 358.64078171934455 T 150 356.1699280763918 T 260 338.8325171314484 T 370 322.56848455172826 T 480 322.33090688559696 T 590 338.3382119436501" stroke="rgba(255,255,255,0.25)" fill="none" stroke-width="2" stroke-linecap="round" opacity="0.5" />
<path d="M 40 310 T 40 332.6378993069485 T 150 308.36552398402773 T 260 285.5958783724195 T 370 285.2632696398357 T 480 307.6734967211101 T 590 332.2227001877763" stroke="rgba(255,255,255,0.25)" fill="none" stroke-width="2" stroke-linecap="round" opacity="0.5" />
<path d="M 40 280 T 40 277.8985308366071 T 150 248.62327219311084 T 260 248.1956323940745 T 370 277.0087814985701 T 480 308.5720430985695 T 590 313.86630004047186" stroke="rgba(255,255,255,0.25)" fill="none" stroke-width="2" stroke-linecap="round" opacity="0.5" />
      <g filter="url(#destNoise4)" opacity="0.4">
        <rect width="720" height="460" fill="#000" />
      </g>
      
      <clipPath id="destLogo4">
        <rect x="638" y="378" width="58" height="58" rx="10" ry="10" />
      </clipPath>
      <rect x="632" y="372" width="70" height="70" fill="rgba(60,40,30,0.12)" rx="16" />
      <image href="../yezai.png" x="638" y="378" width="58" height="58" clip-path="url(#destLogo4)" preserveAspectRatio="xMidYMid slice" opacity="0.9" />
    
    </svg>
