<svg width="720" height="460" viewBox="0 0 720 460" xmlns="http://www.w3.org/2000/svg">
      <defs>
        
  <linearGradient id="destSky11" gradientTransform="rotate(100)">
    <stop offset="0%" stop-color="#efe5d7" />
<stop offset="40%" stop-color="#EDE1D2" />
<stop offset="100%" stop-color="#e1d6c8" />
  </linearGradient>

        
  <filter id="destNoise11" x="0" y="0" width="1" height="1">
    <feTurbulence type="fractalNoise" baseFrequency="0.7933666698693742" numOctaves="3" seed="15952" />
    <feColorMatrix type="matrix" values="0 0 0 0 0  0 0 0 0 0  0 0 0 0 0  0 0 0 0.22 0" />
  </filter>

      </defs>
      <rect width="720" height="460" fill="url(#destSky11)" />
      <circle cx="160" cy="120" r="34" fill="#c1a089" opacity="0.35" />
      
      <g opacity="0.4">
        <ellipse cx="200" cy="120" rx="60" ry="20" fill="#efe5d7" />
        <ellipse cx="226" cy="112" rx="28" ry="14" fill="#f2e9dd" />
      </g>
    

      <g opacity="0.4">
        <ellipse cx="420" cy="138" rx="72" ry="20" fill="#efe5d7" />
        <ellipse cx="446" cy="130" rx="28" ry="14" fill="#f2e9dd" />
      </g>
    
      <path d="M 0 460 L 0 253.00000000000003 Q -45 246.6244177891513 0 255.38874551645367 Q 45 245.1968046656965 90 259.5240531349972 Q 135 231.00830807963084 180 234.90314688733505 Q 225 227.50844347032873 270 236.19342587118192 Q 315 201.20547999322412 360 211.72656632173425 Q 405 193.8973454657756 450 207.56445827632737 Q 495 214.19543906141462 540 215.2373344778407 Q 585 249.21009543555306 630 261.1109371014038 Q 675 240.45273450257105 720 252.76039778744985 L 720 460 Z" fill="#D3BEA9" opacity="0.95" />
      <path d="M 0 460 L 0 322 Q -45 308.1146263309304 0 312.9172498352357 Q 45 306.47640153522866 90 308.6112208433317 Q 135 289.0246837029104 180 303.9081853072026 Q 225 285.7064054091176 270 288.8258961019389 Q 315 309.84602068381645 360 313.6524009229717 Q 405 314.0791039229789 450 325.2150996630662 Q 495 311.0452067332133 540 323.3893744225741 Q 585 302.7418673442387 630 319.91139848002945 Q 675 301.14173427578817 720 303.51062055858665 L 720 460 Z" fill="#B2886B" opacity="0.95" />
      <path d="M 0 460 L 0 381.79999999999995 Q -45 340.7935666200729 0 354.9149418060052 Q 45 352.28566026600026 90 356.831987118302 Q 135 374.78565718342423 180 375.132176157868 Q 225 388.528847288449 270 389.16326342978164 Q 315 378.0230205688823 360 393.9255973545406 Q 405 362.46407421331554 450 375.6261683536372 Q 495 361.45892472805826 540 369.61988646803 Q 585 356.62891033929986 630 365.15141363436555 Q 675 355.71323489447025 720 360.23956818728914 L 720 460 Z" fill="#8A614B" opacity="0.96" />
      <path d="M 0 460 L 0 423.20000000000005 Q -45 415.2871905448455 0 420.25375783219073 Q 45 420.56786400007303 90 425.0948967302235 Q 135 425.3545506608936 180 427.3257573699631 Q 225 418.66332340522183 270 426.7321188536456 Q 315 410.14232423947857 360 418.96194859534904 Q 405 402.33777319859547 450 413.99371780707844 Q 495 397.732945399032 540 410.8096006157108 Q 585 405.4098530765366 630 412.2511381213551 Q 675 404.1048181785353 720 420.1930197795308 L 720 460 Z" fill="#624437" opacity="0.98" />
      <path d="M 40 340 T 40 336.84508611713505 T 150 321.6766812650109 T 260 323.354651155522 T 370 340.336278009687 T 480 357.0087324125713 T 590 358.04343667512586" stroke="rgba(255,255,255,0.25)" fill="none" stroke-width="2" stroke-linecap="round" opacity="0.5" />
<path d="M 40 310 T 40 284.34735377101526 T 150 286.6965116177308 T 260 310.4707892135618 T 370 333.8122253775998 T 480 335.2608113451762 T 590 313.48472385819775" stroke="rgba(255,255,255,0.25)" fill="none" stroke-width="2" stroke-linecap="round" opacity="0.5" />
<path d="M 40 280 T 40 250.03837207993956 T 150 280.6053004174366 T 260 310.6157183426283 T 370 312.4781860152266 T 480 284.48035924625424 T 590 252.36331084851102" stroke="rgba(255,255,255,0.25)" fill="none" stroke-width="2" stroke-linecap="round" opacity="0.5" />
      <g filter="url(#destNoise11)" opacity="0.4">
        <rect width="720" height="460" fill="#000" />
      </g>
      
      <clipPath id="destLogo11">
        <rect x="638" y="378" width="58" height="58" rx="10" ry="10" />
      </clipPath>
      <rect x="632" y="372" width="70" height="70" fill="rgba(60,40,30,0.12)" rx="16" />
      <image href="../yezai.png" x="638" y="378" width="58" height="58" clip-path="url(#destLogo11)" preserveAspectRatio="xMidYMid slice" opacity="0.9" />
    
    </svg>
