<svg width="720" height="460" viewBox="0 0 720 460" xmlns="http://www.w3.org/2000/svg">
      <defs>
        
  <linearGradient id="destSky0" gradientTransform="rotate(100)">
    <stop offset="0%" stop-color="#f4e9dd" />
<stop offset="40%" stop-color="#F2E6D8" />
<stop offset="100%" stop-color="#e6dbcd" />
  </linearGradient>

        
  <filter id="destNoise0" x="0" y="0" width="1" height="1">
    <feTurbulence type="fractalNoise" baseFrequency="0.7514506737232296" numOctaves="3" seed="4985" />
    <feColorMatrix type="matrix" values="0 0 0 0 0  0 0 0 0 0  0 0 0 0 0  0 0 0 0.22 0" />
  </filter>

      </defs>
      <rect width="720" height="460" fill="url(#destSky0)" />
      <circle cx="120" cy="90" r="34" fill="#c0a28f" opacity="0.35" />
      
      <g opacity="0.4">
        <ellipse cx="140" cy="120" rx="60" ry="20" fill="#f4e9dd" />
        <ellipse cx="166" cy="112" rx="28" ry="14" fill="#f5ece2" />
      </g>
    

      <g opacity="0.4">
        <ellipse cx="360" cy="138" rx="72" ry="20" fill="#f4e9dd" />
        <ellipse cx="386" cy="130" rx="28" ry="14" fill="#f5ece2" />
      </g>
    
      <path d="M 0 460 L 0 253.00000000000003 Q -45 196.72011798169177 0 198.48293885507218 Q 45 229.4537838482655 90 234.32854376997497 Q 135 235.4578532489983 180 247.52448204436465 Q 225 248.33123256311063 270 249.65525763978638 Q 315 259.70549430959784 360 275.5167225906231 Q 405 217.0939402604626 450 234.49694054870628 Q 495 211.00537796963718 540 211.45683964941955 Q 585 227.6494222279021 630 229.94500332618605 Q 675 209.5337283215093 720 223.43146765293235 L 720 460 Z" fill="#D9C3AE" opacity="0.95" />
      <path d="M 0 460 L 0 322 Q -45 306.2126395538536 0 316.2275760439326 Q 45 314.7286382204812 90 323.49296594778355 Q 135 311.7502847400725 180 326.0775332093732 Q 225 306.7946279968802 270 310.6894668045844 Q 315 302.8109087686355 360 311.4958911694887 Q 405 285.68301762257374 450 296.2041039510839 Q 495 279.9356736121528 540 293.6027864227046 Q 585 297.35643863222435 630 298.39833404865044 Q 675 315.1684940225266 720 327.06933568837735 L 720 460 Z" fill="#B08B73" opacity="0.95" />
      <path d="M 0 460 L 0 381.79999999999995 Q -45 369.65884054091333 0 380.8826823892136 Q 45 369.7311763638832 90 374.5337998681885 Q 135 368.95415736656224 180 371.0889766746653 Q 225 352.44304664146983 270 367.326548245762 Q 315 352.14122618872983 360 355.2607168815511 Q 405 371.31554049922204 450 375.1219207383773 Q 495 373.2360839903656 540 384.3720797304529 Q 585 370.5673318486985 630 382.9114995380593 Q 675 362.9595876482328 720 380.12911878402355 L 720 460 Z" fill="#87624B" opacity="0.96" />
      <path d="M 0 460 L 0 423.20000000000005 Q -45 404.51843292032595 0 418.4380480727066 Q 45 395.63609571707036 90 409.7574709030026 Q 135 406.16966670684934 180 410.71599355915106 Q 225 419.5195691044903 270 419.86608807893407 Q 315 426.24721557355826 360 426.8816317148909 Q 405 413.36022189161207 450 429.2627986772704 Q 495 406.950990036497 540 420.11308417681863 Q 585 408.9489814940433 630 417.1099432340151 Q 675 406.35320352211716 720 414.87570681718285 L 720 460 Z" fill="#6D4B3B" opacity="0.98" />
      <path d="M 40 340 T 40 340 T 150 356.8294196961579 T 260 358.18594853651365 T 370 342.8224001611973 T 480 324.8639500938414 T 590 320.82151450673723" stroke="rgba(255,255,255,0.25)" fill="none" stroke-width="2" stroke-linecap="round" opacity="0.5" />
<path d="M 40 310 T 40 333.5611875746211 T 150 335.4603279511191 T 260 313.9513602256763 T 370 288.809530131378 T 480 283.1501203094321 T 590 302.1763660504301" stroke="rgba(255,255,255,0.25)" fill="none" stroke-width="2" stroke-linecap="round" opacity="0.5" />
<path d="M 40 280 T 40 312.73470736572455 T 150 285.0803202901552 T 260 252.7551101689146 T 370 245.47872611212702 T 480 269.94104206483865 T 590 303.65151755387643" stroke="rgba(255,255,255,0.25)" fill="none" stroke-width="2" stroke-linecap="round" opacity="0.5" />
      <g filter="url(#destNoise0)" opacity="0.4">
        <rect width="720" height="460" fill="#000" />
      </g>
      
      <clipPath id="destLogo0">
        <rect x="638" y="378" width="58" height="58" rx="10" ry="10" />
      </clipPath>
      <rect x="632" y="372" width="70" height="70" fill="rgba(60,40,30,0.12)" rx="16" />
      <image href="../yezai.png" x="638" y="378" width="58" height="58" clip-path="url(#destLogo0)" preserveAspectRatio="xMidYMid slice" opacity="0.9" />
    
    </svg>
