<svg width="720" height="460" viewBox="0 0 720 460" xmlns="http://www.w3.org/2000/svg">
      <defs>
        
  <linearGradient id="destSky6" gradientTransform="rotate(100)">
    <stop offset="0%" stop-color="#f4e9dd" />
<stop offset="40%" stop-color="#F2E6D8" />
<stop offset="100%" stop-color="#e6dbcd" />
  </linearGradient>

        
  <filter id="destNoise6" x="0" y="0" width="1" height="1">
    <feTurbulence type="fractalNoise" baseFrequency="0.6195868985931156" numOctaves="3" seed="10967" />
    <feColorMatrix type="matrix" values="0 0 0 0 0  0 0 0 0 0  0 0 0 0 0  0 0 0 0.22 0" />
  </filter>

      </defs>
      <rect width="720" height="460" fill="url(#destSky6)" />
      <circle cx="160" cy="110" r="34" fill="#c0a28f" opacity="0.35" />
      
      <g opacity="0.4">
        <ellipse cx="140" cy="120" rx="60" ry="20" fill="#f4e9dd" />
        <ellipse cx="166" cy="112" rx="28" ry="14" fill="#f5ece2" />
      </g>
    

      <g opacity="0.4">
        <ellipse cx="360" cy="138" rx="72" ry="20" fill="#f4e9dd" />
        <ellipse cx="386" cy="130" rx="28" ry="14" fill="#f5ece2" />
      </g>
    
      <path d="M 0 460 L 0 253.00000000000003 Q -45 211.00537796963718 0 211.45683964941955 Q 45 227.6494222279021 90 229.94500332618605 Q 135 209.5337283215093 180 223.43146765293235 Q 225 203.91208283567215 270 212.0572138086613 Q 315 233.74918518021312 360 243.7641216702921 Q 405 246.6244177891513 450 255.38874551645367 Q 495 245.1968046656965 540 259.5240531349972 Q 585 231.00830807963084 630 234.90314688733505 Q 675 227.50844347032873 720 236.19342587118192 L 720 460 Z" fill="#D9C3AE" opacity="0.95" />
      <path d="M 0 460 L 0 322 Q -45 279.9356736121528 0 293.6027864227046 Q 45 297.35643863222435 90 298.39833404865044 Q 135 315.1684940225266 180 327.06933568837735 Q 225 309.5425853322773 270 321.8502486171561 Q 315 309.6295111382168 360 320.85335298651705 Q 405 308.1146263309304 450 312.9172498352357 Q 495 306.47640153522866 540 308.6112208433317 Q 585 289.0246837029104 630 303.9081853072026 Q 675 285.7064054091176 720 288.8258961019389 L 720 460 Z" fill="#B08B73" opacity="0.95" />
      <path d="M 0 460 L 0 381.79999999999995 Q -45 373.2360839903656 0 384.3720797304529 Q 45 370.5673318486985 90 382.9114995380593 Q 135 362.9595876482328 180 380.12911878402355 Q 225 364.6396101640708 270 367.0084964468693 Q 315 358.35648099303233 360 372.27609614541296 Q 405 340.7935666200729 450 354.9149418060052 Q 495 352.28566026600026 540 356.831987118302 Q 585 374.78565718342423 630 375.132176157868 Q 675 388.528847288449 720 389.16326342978164 L 720 460 Z" fill="#87624B" opacity="0.96" />
      <path d="M 0 460 L 0 423.20000000000005 Q -45 406.950990036497 0 420.11308417681863 Q 45 408.9489814940433 90 417.1099432340151 Q 135 406.35320352211716 180 414.87570681718285 Q 225 407.89345080082575 270 412.41978409364464 Q 315 410.8363602005076 360 416.08801200796114 Q 405 415.2871905448455 450 420.25375783219073 Q 495 420.56786400007303 540 425.0948967302235 Q 585 425.3545506608936 630 427.3257573699631 Q 675 418.66332340522183 720 426.7321188536456 L 720 460 Z" fill="#6D4B3B" opacity="0.98" />
      <path d="M 40 340 T 40 359.4769526175639 T 150 346.6997630031181 T 260 327.76284218114563 T 370 320.0767078232832 T 480 330.70795641172487 T 590 349.88226702277217" stroke="rgba(255,255,255,0.25)" fill="none" stroke-width="2" stroke-linecap="round" opacity="0.5" />
<path d="M 40 310 T 40 319.3796682043653 T 150 292.86797905360385 T 260 282.10739095259646 T 370 296.9911389764148 T 480 323.83517383188104 T 590 337.95921367048896" stroke="rgba(255,255,255,0.25)" fill="none" stroke-width="2" stroke-linecap="round" opacity="0.5" />
<path d="M 40 280 T 40 257.9731159260621 T 150 244.13807408190974 T 260 263.2743215411047 T 370 297.7880806409899 T 480 315.94756043348576 T 590 301.05701894410345" stroke="rgba(255,255,255,0.25)" fill="none" stroke-width="2" stroke-linecap="round" opacity="0.5" />
      <g filter="url(#destNoise6)" opacity="0.4">
        <rect width="720" height="460" fill="#000" />
      </g>
      
      <clipPath id="destLogo6">
        <rect x="638" y="378" width="58" height="58" rx="10" ry="10" />
      </clipPath>
      <rect x="632" y="372" width="70" height="70" fill="rgba(60,40,30,0.12)" rx="16" />
      <image href="../yezai.png" x="638" y="378" width="58" height="58" clip-path="url(#destLogo6)" preserveAspectRatio="xMidYMid slice" opacity="0.9" />
    
    </svg>
