<svg width="720" height="460" viewBox="0 0 720 460" xmlns="http://www.w3.org/2000/svg">
      <defs>
        
  <linearGradient id="destSky8" gradientTransform="rotate(100)">
    <stop offset="0%" stop-color="#efe5d7" />
<stop offset="40%" stop-color="#EDE1D2" />
<stop offset="100%" stop-color="#e1d6c8" />
  </linearGradient>

        
  <filter id="destNoise8" x="0" y="0" width="1" height="1">
    <feTurbulence type="fractalNoise" baseFrequency="0.7340736532818483" numOctaves="3" seed="12961" />
    <feColorMatrix type="matrix" values="0 0 0 0 0  0 0 0 0 0  0 0 0 0 0  0 0 0 0.22 0" />
  </filter>

      </defs>
      <rect width="720" height="460" fill="url(#destSky8)" />
      <circle cx="240" cy="90" r="34" fill="#c1a089" opacity="0.35" />
      
      <g opacity="0.4">
        <ellipse cx="200" cy="120" rx="60" ry="20" fill="#efe5d7" />
        <ellipse cx="226" cy="112" rx="28" ry="14" fill="#f2e9dd" />
      </g>
    

      <g opacity="0.4">
        <ellipse cx="420" cy="138" rx="72" ry="20" fill="#efe5d7" />
        <ellipse cx="446" cy="130" rx="28" ry="14" fill="#f2e9dd" />
      </g>
    
      <path d="M 0 460 L 0 253.00000000000003 Q -45 209.5337283215093 0 223.43146765293235 Q 45 203.91208283567215 90 212.0572138086613 Q 135 233.74918518021312 180 243.7641216702921 Q 225 246.6244177891513 270 255.38874551645367 Q 315 245.1968046656965 360 259.5240531349972 Q 405 231.00830807963084 450 234.90314688733505 Q 495 227.50844347032873 540 236.19342587118192 Q 585 201.20547999322412 630 211.72656632173425 Q 675 193.8973454657756 720 207.56445827632737 L 720 460 Z" fill="#D3BEA9" opacity="0.95" />
      <path d="M 0 460 L 0 322 Q -45 315.1684940225266 0 327.06933568837735 Q 45 309.5425853322773 90 321.8502486171561 Q 135 309.6295111382168 180 320.85335298651705 Q 225 308.1146263309304 270 312.9172498352357 Q 315 306.47640153522866 360 308.6112208433317 Q 405 289.0246837029104 450 303.9081853072026 Q 495 285.7064054091176 540 288.8258961019389 Q 585 309.84602068381645 630 313.6524009229717 Q 675 314.0791039229789 720 325.2150996630662 L 720 460 Z" fill="#B2886B" opacity="0.95" />
      <path d="M 0 460 L 0 381.79999999999995 Q -45 362.9595876482328 0 380.12911878402355 Q 45 364.6396101640708 90 367.0084964468693 Q 135 358.35648099303233 180 372.27609614541296 Q 225 340.7935666200729 270 354.9149418060052 Q 315 352.28566026600026 360 356.831987118302 Q 405 374.78565718342423 450 375.132176157868 Q 495 388.528847288449 540 389.16326342978164 Q 585 378.0230205688823 630 393.9255973545406 Q 675 362.46407421331554 720 375.6261683536372 L 720 460 Z" fill="#8A614B" opacity="0.96" />
      <path d="M 0 460 L 0 423.20000000000005 Q -45 406.35320352211716 0 414.87570681718285 Q 45 407.89345080082575 90 412.41978409364464 Q 135 410.8363602005076 180 416.08801200796114 Q 225 415.2871905448455 270 420.25375783219073 Q 315 420.56786400007303 360 425.0948967302235 Q 405 425.3545506608936 450 427.3257573699631 Q 495 418.66332340522183 540 426.7321188536456 Q 585 410.14232423947857 630 418.96194859534904 Q 675 402.33777319859547 720 413.99371780707844 L 720 460 Z" fill="#624437" opacity="0.98" />
      <path d="M 40 340 T 40 353.509263611023 T 150 334.8891779594634 T 260 320.9679585222097 T 370 324.5447102488803 T 480 342.3309840970099 T 590 357.97416191623256" stroke="rgba(255,255,255,0.25)" fill="none" stroke-width="2" stroke-linecap="round" opacity="0.5" />
<path d="M 40 310 T 40 302.8448491432487 T 150 283.35514193109356 T 260 288.36259434843237 T 370 313.26337773581383 T 480 335.1638266827255 T 590 333.92876942647183" stroke="rgba(255,255,255,0.25)" fill="none" stroke-width="2" stroke-linecap="round" opacity="0.5" />
<path d="M 40 280 T 40 245.7423253399774 T 150 252.18047844798446 T 260 284.1957713746178 T 370 312.35349144921855 T 480 310.7655606911781 T 590 280.8919153163209" stroke="rgba(255,255,255,0.25)" fill="none" stroke-width="2" stroke-linecap="round" opacity="0.5" />
      <g filter="url(#destNoise8)" opacity="0.4">
        <rect width="720" height="460" fill="#000" />
      </g>
      
      <clipPath id="destLogo8">
        <rect x="638" y="378" width="58" height="58" rx="10" ry="10" />
      </clipPath>
      <rect x="632" y="372" width="70" height="70" fill="rgba(60,40,30,0.12)" rx="16" />
      <image href="../yezai.png" x="638" y="378" width="58" height="58" clip-path="url(#destLogo8)" preserveAspectRatio="xMidYMid slice" opacity="0.9" />
    
    </svg>
