<svg width="660" height="420" viewBox="0 0 660 420" xmlns="http://www.w3.org/2000/svg">
      <defs>
        
  <linearGradient id="ideaPaper0" gradientTransform="rotate(90)">
    <stop offset="0%" stop-color="#f5ecdf" />
<stop offset="100%" stop-color="#F4EBDD" />
  </linearGradient>

        <mask id="ideaMask0">
          <rect x="0" y="0" width="660" height="420" fill="#fff" />
          <rect x="80" y="190" width="500" height="190" rx="24" ry="24" fill="#000" />
        </mask>
        
  <filter id="ideaNoise0" x="0" y="0" width="1" height="1">
    <feTurbulence type="fractalNoise" baseFrequency="0.7933272011156077" numOctaves="3" seed="89730" />
    <feColorMatrix type="matrix" values="0 0 0 0 0  0 0 0 0 0  0 0 0 0 0  0 0 0 0.18 0" />
  </filter>

      </defs>
      <rect width="660" height="420" fill="url(#ideaPaper0)" />
      <g filter="url(#ideaNoise0)" opacity="0.35">
        <rect width="660" height="420" fill="#000" />
      </g>
      <rect x="40" y="40" width="580" height="160" rx="18" fill="none" stroke="#b5a8a0" stroke-dasharray="7 10" opacity="0.6" />
      <path d="M 60 100 Q 330 94 600 84" stroke="#6B5141" stroke-width="2" stroke-linecap="round" opacity="0.4" fill="none" />
<path d="M 60 128 Q 330 122 600 140" stroke="#6B5141" stroke-width="2" stroke-linecap="round" opacity="0.4" fill="none" />
<path d="M 60 156 Q 330 150 600 140" stroke="#6B5141" stroke-width="2" stroke-linecap="round" opacity="0.4" fill="none" />
<path d="M 60 184 Q 330 178 600 196" stroke="#6B5141" stroke-width="2" stroke-linecap="round" opacity="0.4" fill="none" />
      <rect x="270" y="40" width="120" height="24" rx="12" fill="#D8C6A9" opacity="0.7" />
      <rect x="170" y="182" width="320" height="30" rx="8" fill="#D8C6A9" opacity="0.45" />
      <g transform="translate(80, 190)">
        <rect width="500" height="190" rx="24" fill="#F5E9DD" />
        <path d="M 0 160 L 0 88 Q -32.5 71.22827178144594 0 81.06585756889486 Q 32.5 74.57078302726727 65 78.77608019379709 Q 97.5 72.18376155180034 130 77.231521836428 Q 162.5 66.12763735735862 195 75.80075307282314 Q 227.5 73.59684702930979 260 76.90247333182622 Q 292.5 87.00579389971821 325 88.38043557217529 Q 357.5 91.418354903172 390 95.04689943481819 Q 422.5 79.7478585970504 455 93.86993635338618 Q 487.5 65.98824894907867 520 81.70788159757959 L 520 160 Z" fill="#A87D63" opacity="0.96" transform="translate(0, 20)" />
        <path d="M 0 160 L 0 120 Q -32.5 111.77913745780396 0 113.94016805611435 Q 32.5 108.69500288723492 65 113.87584084256076 Q 97.5 104.05138271171168 130 115.65438074507043 Q 162.5 100.90242200264166 195 117.16003519524511 Q 227.5 113.65744138141196 260 118.04585063573637 Q 292.5 115.59845162958749 325 123.07799089882695 Q 357.5 103.62153045775678 390 118.4109369096882 Q 422.5 93.12186173223719 455 110.81635379116003 Q 487.5 94.2699459116676 520 106.76299215325446 L 520 160 Z" fill="#7C5A47" opacity="0.96" transform="translate(0, 40)" />
        <path d="M 0 160 L 0 147.20000000000002 Q -32.5 138.34466655021063 0 143.52550450553647 Q 32.5 132.98963041368353 65 144.59262844704227 Q 97.5 129.23840792454362 130 145.49602111714708 Q 162.5 141.6391011271174 195 146.02751038144183 Q 227.5 141.56725527005673 260 149.0467945392962 Q 292.5 131.4571556938815 325 146.24656214581293 Q 357.5 123.9953202157732 390 141.68981227469604 Q 422.5 126.76474905036585 455 139.2577952919527 Q 487.5 123.54350900491954 520 140.94295710532424 L 520 160 Z" fill="#574034" transform="translate(0, 60)" />
        <circle cx="80" cy="50" r="18" fill="#b99782" opacity="0.55" />
        <path d="M 30 150 Q 260 120 490 140" stroke="rgba(255,255,255,0.35)" stroke-width="2" fill="none" />
      </g>
      <rect x="70" y="210" width="520" height="210" rx="26" ry="26" fill="none" stroke="#C1B3A4" opacity="0.3" />
      <g opacity="0.5">
        <circle cx="100" cy="320" r="8" fill="#C69673" />
        <rect x="120" y="308" width="120" height="8" rx="4" fill="#6B5141" opacity="0.4" />
        <rect x="120" y="324" width="80" height="6" rx="3" fill="#6B5141" opacity="0.3" />
      </g>
      <g mask="url(#ideaMask0)">
        <rect x="0" y="0" width="660" height="420" fill="rgba(0,0,0,0.04)" />
      </g>
      
      <clipPath id="ideaLogo0">
        <rect x="578" y="338" width="58" height="58" rx="10" ry="10" />
      </clipPath>
      <rect x="572" y="332" width="70" height="70" fill="rgba(60,40,30,0.12)" rx="16" />
      <image href="../yezai.png" x="578" y="338" width="58" height="58" clip-path="url(#ideaLogo0)" preserveAspectRatio="xMidYMid slice" opacity="0.9" />
    
    </svg>
